{"title":"Craig.Ferguson.2014.10.22.Jason.Schwartzman.FS.PDTV.XviD","uid":11268252,"size":471001088,"categoryP":"video","categoryS":"tv_shows","magnet":"?xt=urn:btih:7bc5619248a92a7c5461819f5ad0fd4ef5a89268&amp;dn=Craig.Ferguson.2014.10.22.Jason.Schwartzman.FS.PDTV.XviD&amp;tr=udp%3A%2F%2Ftracker.openbittorrent.com%3A80&amp;tr=udp%3A%2F%2Fopen.demonii.com%3A1337&amp;tr=udp%3A%2F%2Ftracker.coppersurfer.tk%3A6969&amp;tr=udp%3A%2F%2Fexodus.desync.com%3A6969","seeders":1,"leechers":0,"uploader":null,"files":1,"time":1414054838,"description":"Craig.Ferguson.2014.10.22.Jason.Schwartzman.FS.PDTV.XviD\n\n\nVideo\nID                                       : 0\nFormat                                   : MPEG-4 Visual\nFormat profile                           : Advanced Simple@L5\nFormat settings, BVOP                    : 2\nFormat settings, QPel                    : No\nFormat settings, GMC                     : No warppoints\nFormat settings, Matrix                  : Default (H.263)\nMuxing mode                              : Packed bitstream\nCodec ID                                 : XVID\nCodec ID/Hint                            : XviD\nDuration                                 : 39mn 52s\nBit rate                                 : 1 398 Kbps\nWidth                                    : 640 pixels\nHeight                                   : 480 pixels\nDisplay aspect ratio                     : 4:3\nFrame rate                               : 29.970 fps\nColor space                              : YUV\nChroma subsampling                       : 4:2:0\nBit depth                                : 8 bits\nScan type                                : Progressive\nCompression mode                         : Lossy\nBits/(Pixel*Frame)                       : 0.152\nStream size                              : 399 MiB (89%)\nWriting library                          : XviD 1.2.1 (UTC 2008-12-04)\n\nAudio\nID                                       : 1\nFormat                                   : MPEG Audio\nFormat version                           : Version 1\nFormat profile                           : Layer 3\nMode                                     : Joint stereo\nCodec ID                                 : 55\nCodec ID/Hint                            : MP3\nDuration                                 : 39mn 52s\nBit rate mode                            : Variable\nBit rate                                 : 163 Kbps\nMinimum bit rate                         : 32.0 Kbps\nChannel(s)                               : 2 channels\nSampling rate                            : 48.0 KHz\nCompression mode                         : Lossy\nStream size                              : 46.6 MiB (10%)\nAlignment                                : Aligned on interleaves\nInterleave, duration                     : 24 ms (0.72 video frame)\nInterleave, preload duration             : 444 ms\nWriting library                          : LAME3.98r\nEncoding settings                        : -m j -V 3 -q 2 -lowpass 18 --vbr-new -b 32","torrent":{"xt":"urn:btih:7bc5619248a92a7c5461819f5ad0fd4ef5a89268","amp;dn":"Craig.Ferguson.2014.10.22.Jason.Schwartzman.FS.PDTV.XviD","amp;tr":["udp%3A%2F%2Ftracker.openbittorrent.com%3A80","udp%3A%2F%2Fopen.demonii.com%3A1337","udp%3A%2F%2Ftracker.coppersurfer.tk%3A6969","udp%3A%2F%2Fexodus.desync.com%3A6969"],"infoHash":"7bc5619248a92a7c5461819f5ad0fd4ef5a89268","infoHashBuffer":{"type":"Buffer","data":[123,197,97,146,72,169,42,124,84,97,129,159,90,208,253,78,245,168,146,104]},"announce":[],"urlList":[]}}